<?xml version="1.0" encoding="utf-8"?>
<!-- Generator: Adobe Illustrator 17.0.0, SVG Export Plug-In . SVG Version: 6.00 Build 0)  -->
<!DOCTYPE svg PUBLIC "-//W3C//DTD SVG 1.1//EN" "http://www.w3.org/Graphics/SVG/1.1/DTD/svg11.dtd">
<svg version="1.1" id="Layer_1" xmlns="http://www.w3.org/2000/svg" xmlns:xlink="http://www.w3.org/1999/xlink" x="0px" y="0px"
	 width="283.059px" height="37.151px" viewBox="0 0 283.059 37.151" enable-background="new 0 0 283.059 37.151"
	 xml:space="preserve">
<path fill="#231F20" stroke="#000000" stroke-miterlimit="10" d="M3.239,11.352c0,0-3.129-5.216,0-7.824
	c0,0,66.239-4.694,38.075,15.386c0,0,28.942,17.985-37.202,16.178c0,0-8.313-5.06,0.723-9.036h19.621c0,0,6.042-2.892-1.91-3.976
	c0,0-22.16,1.701-21.923-2.945c0,0-3.378-6.731,25.538-2.074c0,0,6.229-6.186-1.765-6.186L3.239,11.352z"/>
<path fill="#231F20" d="M77.656,24.98v9.759c-4.699,0-21.687,4.337-26.385-13.012c0,0-2.169-23.132,29.277-18.072V0.763h16.988
	l1.446,15.181h4.699V4.016c0,0,11.205-9.036,17.349,0c0,0,19.157-9.036,31.446,3.976v25.663l-14.819,1.566l-1.174-17.61
	c0,0-10.753-8.173-15.452,2.309v15.301h-15.904l-0.361-8.434h-4.699l-0.723,8.434H83.439c0,0,0-19.277-3.614-19.277
	c0,0-14.458-2.53-13.012,4.699C66.812,20.643,67.174,25.703,77.656,24.98z"/>
<polygon fill="#231F20" points="158.258,14.438 173.438,2.149 196.571,2.149 180.306,18.817 199.824,33.594 179.041,36.125 
	158.258,22.028 "/>
<path fill="#231F20" d="M204.523,1.123h14.819c0,0,6.506,15.181,20.964,15.904c0,0,4.699,16.626-11.566,19.879h-13.373
	c0,0-14.819,2.53-13.735-8.675c0,0,3.718-3.452,6.601-4.439c0.48-0.164,0.938-0.26,1.351-0.26c2.892,0,1.446-6.867-5.06-7.229
	C204.523,16.303,197.294,7.99,204.523,1.123z"/>
<path fill="#231F20" d="M239.586,1.123h12.02c0,0,1.129,7.583,5.422,6.867c2.169-0.361,11.566,0.048,11.566,0.048
	s3.614-6.554,1.446-6.915h12.651c0,0,4.967,17.349-21.552,19.157C261.138,20.279,236.24,18.833,239.586,1.123z"/>
<rect x="251.511" y="26.727" fill="#231F20" width="21.325" height="9.398"/>
</svg>
